<svg id="Layer_2" data-name="Layer 2" xmlns="http://www.w3.org/2000/svg" viewBox="0 0 154.24 146.69"><defs><style>.cls-1{fill:#8e8e8e;}.cls-1,.cls-2{stroke:#8e8e8e;stroke-linecap:round;stroke-miterlimit:10;}.cls-2{fill:#fff;}</style></defs><title>logo</title><circle class="cls-1" cx="74.66" cy="76.55" r="69.64"/><circle class="cls-2" cx="74.66" cy="76.55" r="62.38"/><circle class="cls-1" cx="74.66" cy="85.1" r="16.7"/><circle class="cls-2" cx="74.66" cy="84.82" r="10.39"/><circle class="cls-1" cx="107.16" cy="17.2" r="16.7"/><circle class="cls-2" cx="107.16" cy="16.93" r="10.39"/><circle class="cls-1" cx="137.04" cy="50.34" r="16.7"/><circle class="cls-2" cx="137.04" cy="50.07" r="10.39"/><circle class="cls-1" cx="46.61" cy="18.01" r="16.7"/><circle class="cls-2" cx="46.61" cy="17.74" r="10.39"/><circle class="cls-1" cx="17.2" cy="50.61" r="16.7"/><circle class="cls-2" cx="17.2" cy="50.34" r="10.39"/><rect class="cls-1" x="71.25" y="101.8" width="6.82" height="41.87"/><rect class="cls-1" x="319.02" y="362.33" width="7.09" height="26.83" transform="translate(97.13 -432.41) rotate(41.1)"/><rect class="cls-1" x="285.49" y="362.63" width="7.22" height="27.35" transform="translate(-407.87 -17.64) rotate(-42.64)"/><rect class="cls-1" x="327.22" y="344.89" width="7.09" height="26.06" transform="translate(-160.66 -365.96) rotate(10.22)"/><rect class="cls-1" x="338.79" y="353.85" width="7.09" height="26.83" transform="translate(443.21 -323.85) rotate(84.12)"/><rect class="cls-1" x="278.05" y="343.98" width="6.94" height="26.28" transform="translate(-282.51 -263.75) rotate(-9.13)"/><rect class="cls-1" x="269.33" y="355.16" width="6.94" height="26.28" transform="translate(-359.35 274.1) rotate(-81.98)"/></svg>